<?xml version="1.0" standalone="no"?>
<!DOCTYPE svg PUBLIC "-//W3C//DTD SVG 20010904//EN"
 "http://www.w3.org/TR/2001/REC-SVG-20010904/DTD/svg10.dtd">
<svg version="1.0" xmlns="http://www.w3.org/2000/svg"
 width="3000.000000pt" height="3000.000000pt" viewBox="0 0 3000.000000 3000.000000"
 preserveAspectRatio="xMidYMid meet">
<metadata>
Created by potrace 1.14, written by Peter Selinger 2001-2017
</metadata>
<g transform="translate(0.000000,3000.000000) scale(0.100000,-0.100000)"
fill="#000000" stroke="none">
<path d="M10861 28074 c-65 -11 -103 -32 -127 -70 -26 -38 -66 -54 -167 -65
-51 -6 -173 -26 -272 -44 -524 -99 -983 -359 -1254 -709 -322 -416 -452 -797
-513 -1501 -15 -181 -24 -20511 -8 -21000 14 -462 30 -602 106 -936 47 -209
172 -507 291 -692 190 -298 417 -498 755 -668 143 -72 310 -136 458 -174 58
-16 139 -43 180 -60 107 -47 197 -63 425 -75 226 -12 2542 -16 2590 -5 17 4
55 22 85 40 60 36 72 39 305 60 128 12 358 15 1150 15 923 0 1002 -2 1160 -20
317 -37 321 -38 377 -67 l53 -28 655 -6 c360 -4 716 -3 792 1 127 6 138 8 167
33 18 14 46 29 64 32 54 8 275 33 410 46 205 19 686 -4 763 -36 56 -23 87 -19
171 25 43 22 150 63 237 90 553 174 963 521 1193 1007 156 331 220 577 265
1023 9 86 13 1810 17 6885 6 6510 7 6772 24 6798 10 16 25 31 33 34 8 3 25 24
37 47 l22 41 0 955 c0 748 -3 963 -13 991 -7 20 -33 59 -57 88 -65 76 -62 113
16 198 21 23 42 54 46 70 4 15 8 451 8 968 0 728 -3 949 -13 981 -7 25 -31 61
-57 88 -37 37 -45 52 -45 82 0 20 -8 82 -17 138 -16 90 -18 185 -18 906 0 743
1 813 19 910 17 96 18 146 13 665 -6 596 -10 673 -58 970 -42 256 -103 453
-214 682 -200 415 -462 687 -855 887 -225 115 -368 165 -610 215 -169 35 -495
69 -715 75 -115 4 -1436 7 -2934 7 l-2723 1 -42 37 c-49 45 -68 56 -121 67
-61 12 -1984 11 -2054 -2z m1707 -874 c37 -6 130 -19 207 -30 166 -24 146 -19
315 -82 169 -64 193 -76 310 -156 213 -148 341 -337 406 -602 37 -153 40 -357
7 -490 -54 -215 -141 -368 -291 -512 -110 -105 -179 -151 -317 -210 -133 -57
-246 -90 -425 -126 l-135 -26 -850 -1 c-937 0 -919 -1 -1185 65 -141 36 -203
57 -300 103 -186 88 -319 206 -441 390 -66 99 -84 136 -120 245 -39 118 -42
137 -47 264 -6 167 8 268 55 408 40 120 60 161 116 245 52 77 239 269 295 302
82 48 355 145 473 168 283 54 249 53 1082 54 479 1 804 -3 845 -9z m-1862
-9104 c271 -89 495 -311 591 -588 72 -208 48 -502 -60 -713 -39 -77 -110 -167
-197 -247 -95 -88 -162 -130 -283 -176 -84 -32 -105 -36 -232 -41 -264 -12
-410 18 -550 113 -225 153 -348 314 -401 524 -21 85 -24 120 -24 282 0 210 8
257 66 372 112 223 221 330 447 439 120 57 238 79 402 75 117 -3 141 -7 241
-40z m2159 14 c360 -95 630 -404 677 -774 13 -106 2 -258 -28 -370 -17 -66
-113 -239 -179 -326 -92 -119 -219 -211 -371 -267 -99 -36 -100 -36 -291 -41
-215 -5 -257 1 -375 53 -282 124 -495 394 -537 680 -27 188 -21 306 25 465 33
114 130 266 226 356 138 127 288 207 453 240 99 19 296 12 400 -16z m2204 0
c357 -87 628 -400 680 -787 14 -100 -8 -301 -44 -410 -39 -115 -130 -247 -244
-354 -53 -50 -116 -104 -140 -120 -61 -40 -246 -98 -350 -110 -47 -5 -94 -12
-106 -15 -28 -7 -221 22 -281 42 -127 43 -246 116 -347 213 -132 127 -200 245
-246 429 -50 197 -54 241 -31 383 17 106 28 139 71 229 62 129 118 208 201
285 126 117 230 172 403 213 50 12 99 23 110 26 42 11 244 -4 324 -24z m2136
9 c158 -24 252 -60 370 -144 138 -98 285 -292 334 -440 59 -181 66 -390 18
-570 -26 -99 -46 -141 -114 -249 -55 -87 -78 -111 -171 -188 -103 -84 -191
-133 -312 -172 -128 -41 -226 -51 -345 -35 -214 28 -371 96 -517 224 -147 130
-224 257 -274 455 -25 100 -29 133 -28 250 0 160 27 277 96 419 36 74 58 102
158 202 107 109 122 120 220 167 194 92 344 113 565 81z m2292 -13 c125 -34
252 -101 344 -179 171 -147 269 -306 309 -507 95 -475 -167 -930 -615 -1066
-82 -25 -105 -28 -255 -28 -145 -1 -174 2 -245 23 -151 44 -250 99 -357 197
-156 143 -217 238 -266 412 -24 89 -27 112 -27 282 0 124 4 202 14 238 19 76
76 205 112 259 48 69 163 192 222 236 196 149 509 203 764 133z m-8892 -2196
c127 -30 193 -57 290 -114 146 -88 290 -252 361 -413 31 -69 71 -234 79 -328
13 -151 -56 -409 -141 -528 -153 -213 -318 -333 -527 -381 -147 -35 -234 -40
-363 -22 -131 18 -182 35 -294 95 -116 63 -297 241 -353 349 -75 142 -127 337
-127 473 0 108 46 292 100 399 61 121 226 296 352 373 162 98 441 142 623 97z
m2230 -5 c191 -43 351 -138 480 -284 131 -150 201 -310 226 -514 20 -166 -11
-334 -97 -513 -43 -91 -56 -108 -173 -224 -124 -123 -128 -127 -241 -177 -137
-62 -205 -75 -390 -75 -114 -1 -150 3 -235 25 -133 35 -167 50 -245 107 -98
72 -260 244 -297 315 -112 216 -148 497 -90 709 15 54 43 129 62 166 101 192
320 386 495 440 185 57 330 64 505 25z m2205 5 c71 -14 124 -34 209 -76 98
-50 128 -71 213 -152 151 -145 213 -248 260 -431 36 -142 41 -308 13 -431 -23
-97 -81 -239 -130 -315 -75 -117 -208 -236 -331 -298 -71 -36 -282 -88 -380
-94 -137 -9 -341 37 -464 105 -144 79 -304 238 -374 371 -61 117 -123 390
-112 496 11 107 61 276 108 370 40 78 61 104 154 195 60 59 131 121 158 139
62 43 186 97 279 121 99 26 271 26 397 0z m2187 4 c172 -35 313 -109 441 -229
179 -169 264 -338 292 -585 14 -116 3 -225 -34 -348 -74 -242 -174 -373 -385
-506 -190 -120 -393 -160 -622 -122 -191 31 -318 91 -447 211 -178 165 -257
326 -299 604 -41 277 71 581 280 759 86 74 282 189 343 202 158 34 312 39 431
14z m2255 -13 c168 -42 277 -101 397 -215 196 -187 291 -408 292 -676 1 -121
-13 -190 -69 -342 -46 -124 -108 -213 -231 -331 -61 -58 -98 -83 -191 -129
-190 -93 -364 -117 -570 -79 -63 11 -138 27 -166 36 -78 23 -195 105 -310 217
-90 88 -109 112 -148 192 -116 236 -145 472 -86 696 66 250 236 452 485 578
102 51 237 79 386 81 76 1 121 -5 211 -28z m-8919 -2192 c100 -14 237 -61 320
-110 96 -56 270 -230 325 -324 86 -147 125 -298 124 -480 -1 -161 -22 -249
-91 -390 -90 -182 -220 -319 -381 -404 -184 -97 -463 -122 -680 -62 -230 65
-450 250 -550 464 -43 92 -94 274 -104 372 -12 113 44 349 117 495 92 186 333
369 555 421 151 36 214 39 365 18z m2292 -19 c176 -44 307 -121 444 -259 119
-121 189 -262 231 -471 24 -115 22 -217 -6 -339 -80 -349 -281 -570 -619 -682
-96 -32 -106 -33 -260 -34 -196 0 -230 8 -400 93 -119 59 -137 71 -213 151
-84 86 -160 188 -201 269 -39 78 -81 258 -88 377 -5 101 -3 119 25 227 54 205
100 292 220 419 76 81 164 150 242 189 116 58 347 105 465 93 28 -3 100 -18
160 -33z m2097 25 c162 -26 274 -70 407 -159 105 -70 170 -139 250 -260 56
-87 82 -149 118 -286 22 -86 24 -109 20 -235 -4 -115 -10 -155 -32 -225 -66
-206 -144 -325 -300 -453 -92 -76 -203 -129 -350 -168 -111 -29 -128 -31 -225
-25 -141 9 -215 26 -340 78 -227 95 -412 302 -493 553 -67 207 -72 363 -17
545 43 143 116 265 234 388 99 105 298 207 457 236 158 29 164 29 271 11z
m2203 0 c168 -18 334 -88 470 -197 178 -145 288 -340 331 -590 13 -75 14 -108
4 -194 -14 -134 -60 -289 -113 -383 -46 -82 -169 -218 -259 -287 -124 -96
-300 -153 -498 -161 -113 -5 -135 -2 -229 22 -129 32 -153 42 -260 107 -109
65 -160 107 -227 188 -80 95 -129 199 -169 352 -30 116 -35 149 -35 253 0 126
28 278 69 370 52 118 200 297 305 367 78 54 227 123 296 137 65 14 206 29 235
25 11 -2 47 -6 80 -9z m2348 -29 c168 -47 288 -119 413 -248 115 -118 165
-207 219 -394 51 -176 51 -311 1 -486 -58 -197 -82 -240 -224 -389 -91 -96
-101 -104 -216 -159 -145 -70 -233 -98 -343 -108 -155 -15 -349 20 -481 87
-185 94 -361 288 -438 482 -71 181 -87 375 -45 539 37 144 61 206 103 272 145
224 354 373 595 423 103 22 304 13 416 -19z m-6686 -2192 c254 -52 507 -245
623 -474 34 -68 74 -191 96 -300 46 -231 -57 -554 -237 -745 -69 -73 -185
-160 -254 -191 -33 -14 -102 -38 -155 -52 -86 -24 -110 -27 -255 -26 -146 1
-168 4 -245 29 -153 49 -259 114 -376 229 -174 172 -264 394 -264 650 1 272
80 468 261 640 76 73 214 170 274 193 181 70 348 84 532 47z m4310 15 c289
-32 514 -162 675 -389 69 -98 95 -158 128 -292 40 -163 42 -305 5 -454 -44
-186 -111 -299 -260 -443 -83 -80 -108 -98 -198 -140 -128 -60 -209 -80 -361
-91 -126 -8 -197 -1 -336 35 -79 20 -102 32 -212 107 -221 151 -364 370 -397
611 -21 149 -14 259 23 397 38 144 67 206 143 307 73 98 148 163 268 234 112
66 186 92 325 113 52 8 96 14 98 15 1 1 46 -4 99 -10z m2230 0 c132 -18 306
-81 400 -143 149 -100 239 -204 313 -358 68 -142 91 -234 97 -389 8 -194 -26
-331 -126 -499 -44 -74 -170 -208 -241 -257 -78 -53 -202 -112 -295 -140 -81
-24 -105 -27 -235 -27 -136 0 -151 2 -245 33 -172 57 -253 101 -348 191 -92
87 -171 193 -218 293 -36 78 -78 238 -86 332 -13 162 37 391 114 525 101 173
369 375 549 414 171 37 211 40 321 25z m-8801 -10 c289 -40 543 -228 681 -503
69 -138 86 -213 87 -396 0 -163 -9 -215 -65 -364 -35 -94 -128 -223 -213 -295
-100 -85 -122 -99 -246 -159 -137 -66 -189 -75 -397 -70 -204 6 -278 26 -422
115 -212 131 -332 290 -403 533 -26 88 -35 282 -18 391 14 92 52 223 81 281
26 50 106 166 143 206 80 87 253 192 381 232 117 36 262 47 391 29z m4414 -4
c129 -19 191 -39 285 -90 203 -110 355 -281 435 -487 37 -96 50 -179 50 -333
0 -205 -31 -310 -143 -485 -61 -96 -85 -124 -156 -182 -90 -72 -217 -143 -318
-177 -187 -63 -499 -37 -685 56 -104 52 -250 191 -346 330 -35 50 -82 169 -98
247 -21 102 -46 239 -45 251 0 17 49 247 62 290 30 105 107 224 223 343 81 84
126 114 248 166 138 59 169 67 257 76 117 11 129 11 231 -5z m-4421 -2196 c36
-5 112 -25 170 -44 396 -129 661 -544 612 -961 -33 -285 -171 -515 -405 -674
-180 -122 -465 -165 -706 -107 -171 41 -250 84 -379 203 -191 176 -277 353
-313 648 -10 87 -9 97 21 226 36 158 71 231 173 367 108 144 257 256 396 299
164 50 303 64 431 43z m2328 -30 c130 -32 220 -78 331 -170 337 -279 433 -739
236 -1138 -66 -133 -190 -260 -348 -355 -17 -10 -58 -36 -91 -57 -81 -51 -239
-89 -371 -89 -88 0 -289 46 -357 81 -46 25 -276 210 -316 255 -103 117 -157
240 -202 456 -33 160 -17 322 50 501 54 144 129 244 269 357 141 115 288 174
472 190 116 10 195 2 327 -31z m2182 6 c111 -28 159 -49 287 -126 105 -63 113
-73 74 -89 -16 -7 -35 -18 -41 -26 -17 -21 -34 -17 -47 12 -9 18 -19 24 -35
22 l-22 -3 -3 -243 c-3 -258 2 -286 41 -280 21 3 22 7 27 188 6 214 10 225
100 274 61 33 63 32 128 -65 l40 -58 1 -163 c1 -90 6 -167 10 -171 5 -5 17 -7
27 -5 16 3 20 16 25 98 3 52 6 88 7 80 1 -8 18 -57 37 -108 33 -88 35 -98 35
-221 0 -193 -47 -364 -139 -503 -54 -81 -217 -246 -271 -273 -19 -10 -67 -37
-106 -61 -137 -85 -304 -107 -549 -72 -195 28 -208 34 -365 172 -188 165 -270
277 -314 426 -25 85 -56 267 -56 331 0 117 71 391 119 457 11 15 43 50 71 77
29 28 61 64 71 80 19 30 19 29 19 -216 0 -263 2 -274 48 -262 22 5 22 9 22
172 0 142 3 172 20 208 23 51 70 83 123 83 96 0 111 -34 117 -275 l5 -190 30
0 30 0 3 180 c3 207 -3 243 -56 298 -60 62 -143 71 -221 26 -41 -24 -53 -14
-49 46 3 38 5 40 83 82 154 81 370 136 505 128 36 -2 112 -15 169 -30z m2141
20 c110 -19 165 -38 275 -93 77 -38 105 -60 205 -161 132 -132 167 -180 211
-295 53 -138 72 -251 66 -401 -8 -192 -50 -322 -155 -476 -66 -98 -284 -302
-357 -334 -164 -73 -400 -97 -550 -57 -103 29 -265 104 -336 158 -163 124
-287 288 -338 447 -47 149 -56 203 -55 347 1 116 5 148 28 225 52 172 107 264
243 401 197 200 481 289 763 239z m2261 -14 c356 -91 589 -320 680 -668 56
-212 22 -477 -88 -686 -52 -99 -198 -245 -309 -310 -132 -76 -201 -98 -339
-108 -66 -5 -152 -12 -192 -15 -60 -5 -88 -2 -165 20 -128 37 -206 75 -311
153 -194 145 -317 357 -362 625 -25 152 -2 302 74 477 56 129 86 172 193 277
140 138 277 209 483 249 89 18 236 12 336 -14z m-8901 -2196 c95 -17 222 -56
291 -91 102 -51 269 -204 332 -304 107 -171 149 -311 150 -500 1 -193 -46
-360 -142 -513 -49 -76 -192 -216 -281 -275 -83 -54 -250 -109 -374 -122 -154
-18 -375 19 -502 82 -105 52 -255 183 -329 288 -73 103 -111 188 -147 330 -28
107 -29 123 -23 235 9 169 26 241 88 369 90 186 157 261 337 376 99 63 163 88
316 120 110 23 175 24 284 5z m4475 -15 c195 -47 298 -103 434 -234 76 -74
101 -106 132 -171 22 -44 48 -89 58 -100 20 -22 63 -147 82 -240 32 -158 -10
-406 -98 -579 -40 -78 -63 -107 -162 -207 -89 -88 -133 -124 -186 -151 -178
-91 -355 -128 -520 -108 -238 29 -374 91 -534 244 -201 193 -283 406 -282 726
1 103 5 128 38 239 36 121 39 128 121 230 117 149 223 232 377 296 177 74 379
94 540 55z m4488 -20 c153 -50 255 -109 359 -208 94 -90 142 -157 203 -285 61
-126 77 -209 77 -387 0 -168 -15 -242 -81 -383 -96 -210 -237 -343 -459 -439
-101 -44 -130 -51 -217 -59 -301 -28 -532 42 -733 224 -139 125 -208 233 -257
403 -23 79 -26 107 -27 288 -2 191 -1 205 22 271 58 164 206 375 313 448 58
39 202 111 262 131 74 24 154 33 293 35 118 1 128 -1 245 -39z m-6649 -5 c149
-43 226 -81 313 -150 75 -60 158 -149 171 -185 3 -8 20 -33 39 -54 22 -27 33
-50 33 -71 0 -19 12 -47 29 -71 41 -55 52 -100 62 -254 12 -178 12 -165 1
-245 -13 -87 -41 -168 -89 -254 -80 -145 -140 -215 -262 -310 -69 -54 -122
-80 -241 -121 -93 -33 -99 -33 -270 -34 -206 -1 -254 9 -405 84 -172 85 -309
219 -398 389 -71 136 -92 233 -91 431 1 191 16 278 68 385 110 223 302 387
536 458 107 33 136 36 290 32 99 -3 143 -9 214 -30z m4456 1 c243 -80 416
-228 533 -458 70 -139 90 -230 90 -413 -1 -183 -19 -263 -93 -411 -63 -127
-123 -201 -230 -287 -150 -119 -284 -173 -490 -197 -95 -11 -116 -10 -217 8
-115 21 -255 74 -346 132 -81 51 -204 168 -250 237 -69 105 -95 164 -124 281
-23 95 -26 125 -25 273 1 200 11 246 89 408 52 107 63 123 152 209 110 108
155 139 258 182 147 61 199 70 393 67 160 -3 182 -6 260 -31z m-4463 -2195
c129 -35 210 -73 308 -146 221 -166 351 -411 371 -700 11 -167 -59 -409 -160
-548 -62 -86 -199 -219 -271 -262 -33 -19 -108 -51 -168 -71 -248 -80 -508
-61 -732 54 -54 27 -98 64 -191 156 -136 135 -164 175 -206 290 -96 262 -93
539 6 741 54 109 156 238 257 323 93 79 136 105 238 142 184 68 351 74 548 21z
m4328 25 c233 -42 420 -152 568 -336 111 -138 166 -270 193 -466 16 -114 16
-123 -3 -234 -22 -127 -72 -269 -124 -355 -53 -88 -152 -189 -253 -259 -152
-106 -207 -126 -413 -151 -110 -14 -118 -14 -248 10 -204 38 -303 82 -433 193
-68 57 -195 224 -234 308 -43 93 -79 282 -79 419 1 162 22 255 89 390 89 180
220 305 438 420 123 64 335 90 499 61z m2258 -11 c254 -57 467 -213 599 -438
81 -138 118 -285 118 -466 0 -125 -38 -289 -94 -406 -42 -89 -140 -216 -214
-278 -112 -95 -343 -187 -520 -207 -98 -11 -171 -3 -308 34 -189 51 -305 123
-435 269 -133 150 -177 250 -214 479 -22 143 -19 237 11 359 42 171 119 303
251 431 120 116 245 182 423 223 140 32 244 32 383 0z m-8753 -23 c149 -50
250 -112 355 -217 205 -206 287 -427 272 -725 -8 -133 -24 -203 -71 -305 -90
-194 -214 -323 -416 -433 -184 -100 -469 -118 -707 -44 -134 42 -293 160 -405
301 -122 152 -188 348 -190 561 -2 197 32 326 123 462 133 198 198 262 351
342 152 80 225 96 433 92 150 -2 166 -4 255 -34z m4360 18 c178 -42 379 -172
500 -322 61 -76 135 -224 162 -323 29 -109 31 -367 5 -465 -44 -162 -150 -344
-261 -447 -83 -78 -250 -167 -375 -201 -85 -23 -113 -26 -246 -25 -166 2 -260
20 -370 72 -129 60 -330 241 -396 356 -42 73 -64 137 -98 286 -39 170 -41 264
-6 408 49 200 152 357 332 501 87 70 155 107 268 143 110 35 104 35 260 36
108 1 159 -4 225 -19z"/>
<path d="M10693 26645 c-166 -36 -319 -160 -393 -318 -44 -93 -60 -160 -60
-246 1 -132 58 -288 141 -384 53 -61 164 -140 238 -168 79 -31 273 -39 356
-14 104 30 175 73 257 155 62 62 86 95 120 166 42 87 42 90 46 215 5 156 -13
228 -86 340 -137 210 -374 307 -619 254z"/>
<path d="M12619 26386 c-52 -18 -95 -51 -140 -108 -103 -131 -87 -317 38 -428
72 -64 124 -85 213 -85 132 0 227 60 286 180 35 70 36 78 32 152 -8 125 -68
216 -180 273 -53 26 -72 30 -137 30 -42 -1 -92 -7 -112 -14z"/>
<path d="M11872 26124 c-47 -32 -17 -104 44 -104 38 0 54 16 54 55 0 56 -51
82 -98 49z"/>
<path d="M14900 9071 c-72 -22 -139 -81 -166 -147 -8 -19 -14 -68 -14 -116 0
-66 5 -93 24 -133 90 -195 328 -189 417 10 31 67 31 180 2 245 -50 110 -164
171 -263 141z m146 -92 c61 -56 82 -173 48 -273 -32 -93 -141 -135 -222 -86
-107 65 -108 297 -2 368 48 32 137 28 176 -9z"/>
</g>
</svg>
